# This file uses centimeters as units for non-parametric coordinates.

v -0.500000 0.000000 0.500000
v 0.500000 0.000000 0.500000
v -0.500000 0.500000 0.500000
v 0.500000 0.500000 0.500000
v -0.500000 0.500000 -0.500000
v 0.500000 0.500000 -0.500000
v -0.500000 0.000000 -0.500000
v 0.500000 0.000000 -0.500000
vt 0.999845 0.749152
vt 0.999845 0.749854
vt 0.500594 0.501387
vt 0.500155 0.999859
vt 0.999845 0.999859
vt 0.999845 0.999859
vt 0.999845 0.750567
vt 0.500155 0.749336
vt 0.999845 0.749854
vt 0.999845 0.999859
vt 0.500155 0.749152
vt 0.500155 0.999859
vt 0.999309 0.501387
vt 0.500155 0.999859
vt 0.500155 0.999859
vt 0.500155 0.999859
vt 0.500155 0.749854
vt 0.999845 0.999859
vt 0.500155 0.749854
vt 0.999845 0.999859
vn 0.000000 0.000000 1.000000
vn 0.000000 0.000000 1.000000
vn 0.000000 0.000000 1.000000
vn 0.000000 0.000000 1.000000
vn 0.000000 1.000000 0.000000
vn 0.000000 1.000000 0.000000
vn 0.000000 1.000000 0.000000
vn 0.000000 1.000000 0.000000
vn 0.000000 0.000000 -1.000000
vn 0.000000 0.000000 -1.000000
vn 0.000000 0.000000 -1.000000
vn 0.000000 0.000000 -1.000000
vn 1.000000 0.000000 0.000000
vn 1.000000 0.000000 0.000000
vn 1.000000 0.000000 0.000000
vn 1.000000 0.000000 0.000000
vn -1.000000 0.000000 0.000000
vn -1.000000 0.000000 0.000000
vn -1.000000 0.000000 0.000000
vn -1.000000 0.000000 0.000000
f 1/19/1 2/2/2 4/18/3 3/15/4
f 3/3/5 4/13/6 6/6/7 5/16/8
f 5/5/9 6/14/10 8/8/11 7/7/12
f 2/17/13 8/9/14 6/10/15 4/4/16
f 7/11/17 1/1/18 3/20/19 5/12/20
v -0.250000 -0.000000 0.250000
v 0.250000 -0.000000 0.250000
v -0.250000 0.125000 0.250000
v 0.250000 0.125000 0.250000
v -0.250000 0.125000 -0.250000
v 0.250000 0.125000 -0.250000
v -0.250000 -0.000000 -0.250000
v 0.250000 -0.000000 -0.250000
vt 0.000100 0.000785
vt 0.499997 0.000785
vt 0.000100 0.499263
vt 0.499997 0.499263
vt 0.000100 0.000785
vt 0.499997 0.000785
vt 0.000100 0.499263
vt 0.499997 0.499263
vt 0.000100 0.000785
vt 0.000100 0.499263
vt 0.499997 0.000785
vt 0.499997 0.499263
vn 0.000000 0.000000 1.000000
vn 0.000000 0.000000 1.000000
vn 0.000000 0.000000 1.000000
vn 0.000000 0.000000 1.000000
vn 0.000000 1.000000 0.000000
vn 0.000000 1.000000 0.000000
vn 0.000000 1.000000 0.000000
vn 0.000000 1.000000 0.000000
vn 0.000000 0.000000 -1.000000
vn 0.000000 0.000000 -1.000000
vn 0.000000 0.000000 -1.000000
vn 0.000000 0.000000 -1.000000
vn 1.000000 0.000000 0.000000
vn 1.000000 0.000000 0.000000
vn 1.000000 0.000000 0.000000
vn 1.000000 0.000000 0.000000
vn -1.000000 0.000000 0.000000
vn -1.000000 0.000000 0.000000
vn -1.000000 0.000000 0.000000
vn -1.000000 0.000000 0.000000
f 9/21/21 10/22/22 12/24/23 11/23/24
f 11/23/25 12/24/26 14/26/27 13/25/28
f 13/25/29 14/26/30 16/28/31 15/27/32
f 10/22/33 16/29/34 14/30/35 12/24/36
f 15/31/37 9/21/38 11/23/39 13/32/40
v -0.500000 -0.500000 0.500000
v 0.500000 -0.500000 0.500000
v -0.500000 0.000000 0.500000
v 0.500000 0.000000 0.500000
v -0.500000 0.000000 -0.500000
v 0.500000 0.000000 -0.500000
v -0.500000 -0.500000 -0.500000
v 0.500000 -0.500000 -0.500000
vt 0.500272 0.499903
vt 0.499406 0.499903
vt 0.000691 0.502322
vt -0.000183 0.749903
vt 0.499772 0.749266
vt 0.499406 0.999166
vt -0.000244 0.505927
vt 0.000325 0.500734
vt -0.000244 0.999022
vt 0.500341 0.999022
vt 0.500378 0.499903
vt 0.500378 0.749903
vt -0.000272 0.499903
vt -0.000272 0.749903
vt 0.500341 0.505927
vt 0.499037 0.499267
vt 0.001060 0.750733
vt 0.000691 0.999166
vt 0.499406 0.502322
vt 0.000691 0.749903
vt -0.000183 0.499903
vt 0.499406 0.749903
vt 0.000691 0.499903
vt 0.500272 0.749903
vn 0.000000 0.000000 1.000000
vn 0.000000 0.000000 1.000000
vn 0.000000 0.000000 1.000000
vn 0.000000 0.000000 1.000000
vn 0.000000 1.000000 0.000000
vn 0.000000 1.000000 0.000000
vn 0.000000 1.000000 0.000000
vn 0.000000 1.000000 0.000000
vn 0.000000 0.000000 -1.000000
vn 0.000000 0.000000 -1.000000
vn 0.000000 0.000000 -1.000000
vn 0.000000 0.000000 -1.000000
vn 0.000000 -1.000000 0.000000
vn 0.000000 -1.000000 0.000000
vn 0.000000 -1.000000 0.000000
vn 0.000000 -1.000000 0.000000
vn 1.000000 0.000000 0.000000
vn 1.000000 0.000000 0.000000
vn 1.000000 0.000000 0.000000
vn 1.000000 0.000000 0.000000
vn -1.000000 0.000000 0.000000
vn -1.000000 0.000000 0.000000
vn -1.000000 0.000000 0.000000
vn -1.000000 0.000000 0.000000
f 17/55/41 18/34/42 20/54/43 19/52/44
f 19/35/45 20/51/46 22/38/47 21/50/48
f 21/37/49 22/49/50 24/40/51 23/48/52
f 23/39/53 24/47/54 18/42/55 17/41/56
f 18/53/57 24/43/58 22/44/59 20/36/60
f 23/45/61 17/33/62 19/56/63 21/46/64
